<svg width="128" height="149" viewBox="0 0 128 149" fill="none" xmlns="http://www.w3.org/2000/svg">
<g filter="url(#filter0_d_40_2412)">
<mask id="path-1-outside-1_40_2412" maskUnits="userSpaceOnUse" x="0" y="0" width="127" height="147" fill="black">
<rect fill="white" width="127" height="147"/>
<path fill-rule="evenodd" clip-rule="evenodd" d="M71.8886 8.48066C67.9344 2.50645 59.1651 2.50645 55.2108 8.48066L6.67785 81.8065C2.27787 88.4542 7.04482 97.3259 15.0167 97.3259H48.6219V136.759C48.6219 139.908 51.1743 142.46 54.3228 142.46C57.4712 142.46 60.0236 139.908 60.0236 136.759V97.3259H66.2944V136.474C66.2944 139.78 68.9744 142.46 72.2803 142.46C75.5862 142.46 78.2662 139.78 78.2662 136.474V97.3259H112.083C120.055 97.3259 124.822 88.4542 120.422 81.8065L71.8886 8.48066Z"/>
</mask>
<path fill-rule="evenodd" clip-rule="evenodd" d="M71.8886 8.48066C67.9344 2.50645 59.1651 2.50645 55.2108 8.48066L6.67785 81.8065C2.27787 88.4542 7.04482 97.3259 15.0167 97.3259H48.6219V136.759C48.6219 139.908 51.1743 142.46 54.3228 142.46C57.4712 142.46 60.0236 139.908 60.0236 136.759V97.3259H66.2944V136.474C66.2944 139.78 68.9744 142.46 72.2803 142.46C75.5862 142.46 78.2662 139.78 78.2662 136.474V97.3259H112.083C120.055 97.3259 124.822 88.4542 120.422 81.8065L71.8886 8.48066Z" fill="#FFCB8E"/>
<path d="M55.2108 8.48066L51.8753 6.27292L51.8753 6.27292L55.2108 8.48066ZM71.8886 8.48066L68.553 10.6884L68.553 10.6884L71.8886 8.48066ZM6.67785 81.8065L10.0134 84.0143L10.0134 84.0143L6.67785 81.8065ZM48.6219 97.3259H52.6219V93.3259H48.6219V97.3259ZM60.0236 97.3259V93.3259H56.0236V97.3259H60.0236ZM66.2944 97.3259H70.2944V93.3259H66.2944V97.3259ZM78.2662 97.3259V93.3259H74.2662V97.3259H78.2662ZM120.422 81.8065L123.757 79.5988L123.757 79.5988L120.422 81.8065ZM58.5464 10.6884C60.9189 7.10387 66.1805 7.10387 68.553 10.6884L75.2241 6.27292C69.6882 -2.09097 57.4112 -2.09097 51.8753 6.27292L58.5464 10.6884ZM10.0134 84.0143L58.5464 10.6884L51.8753 6.27292L3.3423 79.5988L10.0134 84.0143ZM15.0167 93.3259C10.2336 93.3259 7.37342 88.0029 10.0134 84.0143L3.3423 79.5988C-2.81768 88.9055 3.85607 101.326 15.0167 101.326V93.3259ZM48.6219 93.3259H15.0167V101.326H48.6219V93.3259ZM44.6219 97.3259V136.759H52.6219V97.3259H44.6219ZM44.6219 136.759C44.6219 142.117 48.9651 146.46 54.3228 146.46V138.46C53.3834 138.46 52.6219 137.699 52.6219 136.759H44.6219ZM54.3228 146.46C59.6804 146.46 64.0236 142.117 64.0236 136.759H56.0236C56.0236 137.699 55.2621 138.46 54.3228 138.46V146.46ZM64.0236 136.759V97.3259H56.0236V136.759H64.0236ZM66.2944 93.3259H60.0236V101.326H66.2944V93.3259ZM62.2944 97.3259V136.474H70.2944V97.3259H62.2944ZM62.2944 136.474C62.2944 141.989 66.7653 146.46 72.2803 146.46V138.46C71.1835 138.46 70.2944 137.571 70.2944 136.474H62.2944ZM72.2803 146.46C77.7953 146.46 82.2662 141.989 82.2662 136.474H74.2662C74.2662 137.571 73.3771 138.46 72.2803 138.46V146.46ZM82.2662 136.474V97.3259H74.2662V136.474H82.2662ZM112.083 93.3259H78.2662V101.326H112.083V93.3259ZM117.086 84.0142C119.726 88.0029 116.866 93.3259 112.083 93.3259V101.326C123.243 101.326 129.917 88.9055 123.757 79.5988L117.086 84.0142ZM68.553 10.6884L117.086 84.0142L123.757 79.5988L75.2241 6.27292L68.553 10.6884Z" fill="white" mask="url(#path-1-outside-1_40_2412)"/>
<path fill-rule="evenodd" clip-rule="evenodd" d="M71.8886 8.48065C67.9344 2.50645 59.1651 2.50645 55.2108 8.48066L6.67785 81.8065C2.27787 88.4542 7.04482 97.3259 15.0167 97.3259H48.6219V136.759C48.6219 139.908 51.1743 142.46 54.3228 142.46C57.4712 142.46 60.0236 139.908 60.0236 136.759V97.3259H66.2944V136.474C66.2944 139.78 68.9744 142.46 72.2803 142.46C75.5862 142.46 78.2662 139.78 78.2662 136.474V97.3259H112.083C120.055 97.3259 124.822 88.4542 120.422 81.8065L71.8886 8.48065Z" fill="#FFCB8E"/>
<path d="M55.2108 8.48066L54.377 7.92872L54.377 7.92872L55.2108 8.48066ZM71.8886 8.48065L71.0547 9.03259L71.0547 9.03259L71.8886 8.48065ZM6.67785 81.8065L7.51173 82.3585L7.51173 82.3585L6.67785 81.8065ZM48.6219 97.3259H49.6219V96.3259H48.6219V97.3259ZM60.0236 97.3259V96.3259H59.0236V97.3259H60.0236ZM66.2944 97.3259H67.2944V96.3259H66.2944V97.3259ZM78.2662 97.3259V96.3259H77.2662V97.3259H78.2662ZM120.422 81.8065L121.255 81.2546L121.255 81.2546L120.422 81.8065ZM56.0447 9.03259C59.6035 3.6558 67.4959 3.6558 71.0547 9.03259L72.7225 7.92872C68.3728 1.35709 58.7266 1.35709 54.377 7.92872L56.0447 9.03259ZM7.51173 82.3585L56.0447 9.03259L54.377 7.92872L5.84396 81.2546L7.51173 82.3585ZM15.0167 96.3259C7.84201 96.3259 3.55176 88.3414 7.51173 82.3585L5.84396 81.2546C1.00398 88.567 6.24763 98.3259 15.0167 98.3259V96.3259ZM48.6219 96.3259H15.0167V98.3259H48.6219V96.3259ZM47.6219 97.3259V136.759H49.6219V97.3259H47.6219ZM47.6219 136.759C47.6219 140.46 50.622 143.46 54.3228 143.46V141.46C51.7266 141.46 49.6219 139.355 49.6219 136.759H47.6219ZM54.3228 143.46C58.0235 143.46 61.0236 140.46 61.0236 136.759H59.0236C59.0236 139.355 56.9189 141.46 54.3228 141.46V143.46ZM61.0236 136.759V97.3259H59.0236V136.759H61.0236ZM66.2944 96.3259H60.0236V98.3259H66.2944V96.3259ZM65.2944 97.3259V136.474H67.2944V97.3259H65.2944ZM65.2944 136.474C65.2944 140.332 68.4221 143.46 72.2803 143.46V141.46C69.5267 141.46 67.2944 139.228 67.2944 136.474H65.2944ZM72.2803 143.46C76.1385 143.46 79.2662 140.332 79.2662 136.474H77.2662C77.2662 139.228 75.0339 141.46 72.2803 141.46V143.46ZM79.2662 136.474V97.3259H77.2662V136.474H79.2662ZM112.083 96.3259H78.2662V98.3259H112.083V96.3259ZM119.588 82.3584C123.548 88.3414 119.257 96.3259 112.083 96.3259V98.3259C120.852 98.3259 126.095 88.567 121.255 81.2546L119.588 82.3584ZM71.0547 9.03259L119.588 82.3584L121.255 81.2546L72.7225 7.92872L71.0547 9.03259Z" fill="black"/>
<circle cx="59.6181" cy="71.02" r="1.24367" fill="black"/>
<circle cx="67.0801" cy="71.02" r="1.24367" fill="black"/>
<path d="M53.3998 74.1294C56.6768 76.0064 65.2443 78.6342 73.2986 74.1294" stroke="black" stroke-width="2" stroke-linecap="round"/>
</g>
<defs>
<filter id="filter0_d_40_2412" x="-0.00671387" y="0" width="127.113" height="148.46" filterUnits="userSpaceOnUse" color-interpolation-filters="sRGB">
<feFlood flood-opacity="0" result="BackgroundImageFix"/>
<feColorMatrix in="SourceAlpha" type="matrix" values="0 0 0 0 0 0 0 0 0 0 0 0 0 0 0 0 0 0 127 0" result="hardAlpha"/>
<feOffset dy="1"/>
<feGaussianBlur stdDeviation="0.5"/>
<feComposite in2="hardAlpha" operator="out"/>
<feColorMatrix type="matrix" values="0 0 0 0 0 0 0 0 0 0 0 0 0 0 0 0 0 0 0.25 0"/>
<feBlend mode="normal" in2="BackgroundImageFix" result="effect1_dropShadow_40_2412"/>
<feBlend mode="normal" in="SourceGraphic" in2="effect1_dropShadow_40_2412" result="shape"/>
</filter>
</defs>
</svg>
