<svg width="79" height="179" viewBox="0 0 79 179" fill="none" xmlns="http://www.w3.org/2000/svg">
<g filter="url(#filter0_d_720_49)">
<mask id="path-1-outside-1_720_49" maskUnits="userSpaceOnUse" x="1" y="0" width="77" height="177" fill="black">
<rect fill="white" x="1" width="77" height="177"/>
<path fill-rule="evenodd" clip-rule="evenodd" d="M5 38.0084C5 19.2261 20.2261 4 39.0084 4C57.7907 4 73.0168 19.2261 73.0168 38.0084V117.967C73.0168 132.449 63.9647 144.817 51.2099 149.721V167.811C51.2099 170.536 49.0016 172.744 46.2774 172.744C43.5533 172.744 41.3449 170.536 41.3449 167.811V151.896C40.5728 151.949 39.7937 151.975 39.0084 151.975C38.0467 151.975 37.0942 151.936 36.1527 151.857V167.811C36.1527 170.536 33.9443 172.744 31.2202 172.744C28.496 172.744 26.2877 170.536 26.2877 167.811V149.517C13.8071 144.48 5 132.252 5 117.967V38.0084Z"/>
</mask>
<path fill-rule="evenodd" clip-rule="evenodd" d="M5 38.0084C5 19.2261 20.2261 4 39.0084 4C57.7907 4 73.0168 19.2261 73.0168 38.0084V117.967C73.0168 132.449 63.9647 144.817 51.2099 149.721V167.811C51.2099 170.536 49.0016 172.744 46.2774 172.744C43.5533 172.744 41.3449 170.536 41.3449 167.811V151.896C40.5728 151.949 39.7937 151.975 39.0084 151.975C38.0467 151.975 37.0942 151.936 36.1527 151.857V167.811C36.1527 170.536 33.9443 172.744 31.2202 172.744C28.496 172.744 26.2877 170.536 26.2877 167.811V149.517C13.8071 144.48 5 132.252 5 117.967V38.0084Z" fill="#F885D8"/>
<path d="M51.2099 149.721L49.7744 145.988L47.2099 146.974V149.721H51.2099ZM41.3449 151.896H45.3449V147.616L41.0741 147.906L41.3449 151.896ZM36.1527 151.857L36.4841 147.871L32.1527 147.511V151.857H36.1527ZM26.2877 149.517H30.2877V146.817L27.7847 145.807L26.2877 149.517ZM39.0084 0C18.0169 0 1 17.0169 1 38.0084H9C9 21.4352 22.4352 8 39.0084 8V0ZM77.0168 38.0084C77.0168 17.0169 59.9999 0 39.0084 0V8C55.5816 8 69.0168 21.4352 69.0168 38.0084H77.0168ZM77.0168 117.967V38.0084H69.0168V117.967H77.0168ZM52.6455 153.455C66.8938 147.976 77.0168 134.159 77.0168 117.967H69.0168C69.0168 130.739 61.0356 141.658 49.7744 145.988L52.6455 153.455ZM47.2099 149.721V167.811H55.2099V149.721H47.2099ZM47.2099 167.811C47.2099 168.326 46.7924 168.744 46.2774 168.744V176.744C51.2107 176.744 55.2099 172.745 55.2099 167.811H47.2099ZM46.2774 168.744C45.7624 168.744 45.3449 168.326 45.3449 167.811H37.3449C37.3449 172.745 41.3441 176.744 46.2774 176.744V168.744ZM45.3449 167.811V151.896H37.3449V167.811H45.3449ZM39.0084 155.975C39.8842 155.975 40.7536 155.946 41.6157 155.887L41.0741 147.906C40.3921 147.952 39.7033 147.975 39.0084 147.975V155.975ZM35.8213 155.844C36.8729 155.931 37.9359 155.975 39.0084 155.975V147.975C38.1574 147.975 37.3155 147.94 36.4841 147.871L35.8213 155.844ZM40.1527 167.811V151.857H32.1527V167.811H40.1527ZM31.2202 176.744C36.1535 176.744 40.1527 172.745 40.1527 167.811H32.1527C32.1527 168.326 31.7352 168.744 31.2202 168.744V176.744ZM22.2877 167.811C22.2877 172.745 26.2869 176.744 31.2202 176.744V168.744C30.7052 168.744 30.2877 168.326 30.2877 167.811H22.2877ZM22.2877 149.517V167.811H30.2877V149.517H22.2877ZM1 117.967C1 133.938 10.8495 147.599 24.7907 153.226L27.7847 145.807C16.7648 141.36 9 130.565 9 117.967H1ZM1 38.0084V117.967H9V38.0084H1Z" fill="white" mask="url(#path-1-outside-1_720_49)"/>
<mask id="path-3-inside-2_720_49" fill="white">
<path fill-rule="evenodd" clip-rule="evenodd" d="M5 38.0084C5 19.2261 20.2261 4 39.0084 4C57.7907 4 73.0168 19.2261 73.0168 38.0084V117.967C73.0168 132.449 63.9647 144.817 51.2099 149.721V167.811C51.2099 170.536 49.0016 172.744 46.2774 172.744C43.5533 172.744 41.3449 170.536 41.3449 167.811V151.896C40.5728 151.949 39.7937 151.975 39.0084 151.975C38.0467 151.975 37.0942 151.936 36.1527 151.857V167.811C36.1527 170.536 33.9443 172.744 31.2202 172.744C28.496 172.744 26.2877 170.536 26.2877 167.811V149.517C13.8071 144.48 5 132.252 5 117.967V38.0084Z"/>
</mask>
<path fill-rule="evenodd" clip-rule="evenodd" d="M5 38.0084C5 19.2261 20.2261 4 39.0084 4C57.7907 4 73.0168 19.2261 73.0168 38.0084V117.967C73.0168 132.449 63.9647 144.817 51.2099 149.721V167.811C51.2099 170.536 49.0016 172.744 46.2774 172.744C43.5533 172.744 41.3449 170.536 41.3449 167.811V151.896C40.5728 151.949 39.7937 151.975 39.0084 151.975C38.0467 151.975 37.0942 151.936 36.1527 151.857V167.811C36.1527 170.536 33.9443 172.744 31.2202 172.744C28.496 172.744 26.2877 170.536 26.2877 167.811V149.517C13.8071 144.48 5 132.252 5 117.967V38.0084Z" fill="#F885D8"/>
<path d="M51.2099 149.721L50.4922 147.854L49.2099 148.347V149.721H51.2099ZM41.3449 151.896H43.3449V149.756L41.2095 149.901L41.3449 151.896ZM36.1527 151.857L36.3184 149.864L34.1527 149.684V151.857H36.1527ZM26.2877 149.517H28.2877V148.167L27.0362 147.662L26.2877 149.517ZM39.0084 2C19.1215 2 3 18.1215 3 38.0084H7C7 20.3306 21.3306 6 39.0084 6V2ZM75.0168 38.0084C75.0168 18.1215 58.8953 2 39.0084 2V6C56.6862 6 71.0168 20.3307 71.0168 38.0084H75.0168ZM75.0168 117.967V38.0084H71.0168V117.967H75.0168ZM51.9277 151.588C65.4292 146.397 75.0168 133.304 75.0168 117.967H71.0168C71.0168 131.594 62.5002 143.237 50.4922 147.854L51.9277 151.588ZM49.2099 149.721V167.811H53.2099V149.721H49.2099ZM49.2099 167.811C49.2099 169.431 47.897 170.744 46.2774 170.744V174.744C50.1061 174.744 53.2099 171.64 53.2099 167.811H49.2099ZM46.2774 170.744C44.6578 170.744 43.3449 169.431 43.3449 167.811H39.3449C39.3449 171.64 42.4487 174.744 46.2774 174.744V170.744ZM43.3449 167.811V151.896H39.3449V167.811H43.3449ZM39.0084 153.975C39.839 153.975 40.6632 153.947 41.4803 153.892L41.2095 149.901C40.4825 149.95 39.7485 149.975 39.0084 149.975V153.975ZM35.987 153.85C36.9836 153.933 37.9913 153.975 39.0084 153.975V149.975C38.102 149.975 37.2049 149.938 36.3184 149.864L35.987 153.85ZM38.1527 167.811V151.857H34.1527V167.811H38.1527ZM31.2202 174.744C35.0489 174.744 38.1527 171.64 38.1527 167.811H34.1527C34.1527 169.431 32.8398 170.744 31.2202 170.744V174.744ZM24.2877 167.811C24.2877 171.64 27.3915 174.744 31.2202 174.744V170.744C29.6006 170.744 28.2877 169.431 28.2877 167.811H24.2877ZM24.2877 149.517V167.811H28.2877V149.517H24.2877ZM3 117.967C3 133.095 12.3283 146.039 25.5392 151.371L27.0362 147.662C15.286 142.92 7 131.409 7 117.967H3ZM3 38.0084V117.967H7V38.0084H3Z" fill="black" mask="url(#path-3-inside-2_720_49)"/>
<circle cx="35.5354" cy="84.4849" r="1.24367" fill="black"/>
<circle cx="42.9976" cy="84.4849" r="1.24367" fill="black"/>
<path d="M29.3171 87.5942C32.5941 89.4713 41.1617 92.0991 49.2159 87.5942" stroke="black" stroke-width="2" stroke-linecap="round"/>
</g>
<defs>
<filter id="filter0_d_720_49" x="0" y="0" width="78.0168" height="178.744" filterUnits="userSpaceOnUse" color-interpolation-filters="sRGB">
<feFlood flood-opacity="0" result="BackgroundImageFix"/>
<feColorMatrix in="SourceAlpha" type="matrix" values="0 0 0 0 0 0 0 0 0 0 0 0 0 0 0 0 0 0 127 0" result="hardAlpha"/>
<feOffset dy="1"/>
<feGaussianBlur stdDeviation="0.5"/>
<feComposite in2="hardAlpha" operator="out"/>
<feColorMatrix type="matrix" values="0 0 0 0 0 0 0 0 0 0 0 0 0 0 0 0 0 0 0.25 0"/>
<feBlend mode="normal" in2="BackgroundImageFix" result="effect1_dropShadow_720_49"/>
<feBlend mode="normal" in="SourceGraphic" in2="effect1_dropShadow_720_49" result="shape"/>
</filter>
</defs>
</svg>
