<svg width="85" height="100" viewBox="0 0 85 100" fill="none" xmlns="http://www.w3.org/2000/svg">
<g filter="url(#filter0_d_40_2403)">
<mask id="path-1-outside-1_40_2403" maskUnits="userSpaceOnUse" x="1" y="0" width="83" height="98" fill="black">
<rect fill="white" x="1" width="83" height="98"/>
<path fill-rule="evenodd" clip-rule="evenodd" d="M61.438 73.434C72.3628 66.9191 79.6806 54.9843 79.6806 41.3403C79.6806 20.7178 62.9628 4 42.3403 4C21.7178 4 5 20.7178 5 41.3403C5 54.7455 12.0639 66.5009 22.6725 73.0871V85.2365C22.6725 89.8018 26.3734 93.5027 30.9386 93.5027C35.5039 93.5027 39.2048 89.8018 39.2048 85.2365V78.5508C40.2386 78.6368 41.2843 78.6806 42.3403 78.6806C43.2026 78.6806 44.058 78.6514 44.9056 78.5939V85.2365C44.9056 89.8018 48.6065 93.5027 53.1718 93.5027C57.7371 93.5027 61.438 89.8018 61.438 85.2365V73.434Z"/>
</mask>
<path fill-rule="evenodd" clip-rule="evenodd" d="M61.438 73.434C72.3628 66.9191 79.6806 54.9843 79.6806 41.3403C79.6806 20.7178 62.9628 4 42.3403 4C21.7178 4 5 20.7178 5 41.3403C5 54.7455 12.0639 66.5009 22.6725 73.0871V85.2365C22.6725 89.8018 26.3734 93.5027 30.9386 93.5027C35.5039 93.5027 39.2048 89.8018 39.2048 85.2365V78.5508C40.2386 78.6368 41.2843 78.6806 42.3403 78.6806C43.2026 78.6806 44.058 78.6514 44.9056 78.5939V85.2365C44.9056 89.8018 48.6065 93.5027 53.1718 93.5027C57.7371 93.5027 61.438 89.8018 61.438 85.2365V73.434Z" fill="#E0B8FF"/>
<path d="M61.438 73.434L59.3893 69.9985L57.438 71.1622V73.434H61.438ZM22.6725 73.0871H26.6725V70.8622L24.7823 69.6887L22.6725 73.0871ZM39.2048 78.5508L39.5362 74.5646L35.2048 74.2045V78.5508H39.2048ZM44.9056 78.5939H48.9056V74.3133L44.6348 74.6031L44.9056 78.5939ZM75.6806 41.3403C75.6806 53.5179 69.1543 64.1752 59.3893 69.9985L63.4867 76.8695C75.5714 69.6629 83.6806 56.4507 83.6806 41.3403H75.6806ZM42.3403 8C60.7537 8 75.6806 22.927 75.6806 41.3403H83.6806C83.6806 18.5087 65.1719 0 42.3403 0V8ZM9 41.3403C9 22.927 23.927 8 42.3403 8V0C19.5087 0 1 18.5087 1 41.3403H9ZM24.7823 69.6887C15.2997 63.8016 9 53.305 9 41.3403H1C1 56.186 8.82808 69.2001 20.5626 76.4854L24.7823 69.6887ZM18.6725 73.0871V85.2365H26.6725V73.0871H18.6725ZM18.6725 85.2365C18.6725 92.0109 24.1642 97.5027 30.9386 97.5027V89.5027C28.5825 89.5027 26.6725 87.5926 26.6725 85.2365H18.6725ZM30.9386 97.5027C37.713 97.5027 43.2048 92.0109 43.2048 85.2365H35.2048C35.2048 87.5926 33.2948 89.5027 30.9386 89.5027V97.5027ZM43.2048 85.2365V78.5508H35.2048V85.2365H43.2048ZM42.3403 74.6806C41.3951 74.6806 40.4599 74.6414 39.5362 74.5646L38.8734 82.5371C40.0173 82.6322 41.1736 82.6806 42.3403 82.6806V74.6806ZM44.6348 74.6031C43.8773 74.6545 43.1122 74.6806 42.3403 74.6806V82.6806C43.293 82.6806 44.2387 82.6483 45.1764 82.5847L44.6348 74.6031ZM40.9056 78.5939V85.2365H48.9056V78.5939H40.9056ZM40.9056 85.2365C40.9056 92.0109 46.3974 97.5027 53.1718 97.5027V89.5027C50.8157 89.5027 48.9056 87.5926 48.9056 85.2365H40.9056ZM53.1718 97.5027C59.9462 97.5027 65.438 92.0109 65.438 85.2365H57.438C57.438 87.5926 55.528 89.5027 53.1718 89.5027V97.5027ZM65.438 85.2365V73.434H57.438V85.2365H65.438Z" fill="white" mask="url(#path-1-outside-1_40_2403)"/>
<path fill-rule="evenodd" clip-rule="evenodd" d="M61.438 73.434C72.3628 66.9191 79.6806 54.9843 79.6806 41.3403C79.6806 20.7178 62.9628 4 42.3403 4C21.7178 4 5 20.7178 5 41.3403C5 54.7455 12.0639 66.5009 22.6725 73.0871V85.2365C22.6725 89.8018 26.3734 93.5027 30.9386 93.5027C35.5039 93.5027 39.2048 89.8018 39.2048 85.2365V78.5508C40.2386 78.6368 41.2843 78.6806 42.3403 78.6806C43.2026 78.6806 44.058 78.6514 44.9056 78.5939V85.2365C44.9056 89.8018 48.6065 93.5027 53.1718 93.5027C57.7371 93.5027 61.438 89.8018 61.438 85.2365V73.434Z" fill="#E0B8FF"/>
<path d="M61.438 73.434L60.9258 72.5752L60.438 72.8661V73.434H61.438ZM22.6725 73.0871H23.6725V72.5309L23.1999 72.2375L22.6725 73.0871ZM39.2048 78.5508L39.2877 77.5543L38.2048 77.4642V78.5508H39.2048ZM44.9056 78.5939H45.9056V77.5237L44.8379 77.5962L44.9056 78.5939ZM78.6806 41.3403C78.6806 54.6177 71.5607 66.2331 60.9258 72.5752L61.9502 74.2929C73.165 67.605 80.6806 55.3509 80.6806 41.3403H78.6806ZM42.3403 5C62.4105 5 78.6806 21.2701 78.6806 41.3403H80.6806C80.6806 20.1655 63.5151 3 42.3403 3V5ZM6 41.3403C6 21.2701 22.2701 5 42.3403 5V3C21.1655 3 4 20.1655 4 41.3403H6ZM23.1999 72.2375C12.8729 65.8261 6 54.3854 6 41.3403H4C4 55.1057 11.255 67.1757 22.145 73.9367L23.1999 72.2375ZM21.6725 73.0871V85.2365H23.6725V73.0871H21.6725ZM21.6725 85.2365C21.6725 90.3541 25.8211 94.5027 30.9386 94.5027V92.5027C26.9256 92.5027 23.6725 89.2495 23.6725 85.2365H21.6725ZM30.9386 94.5027C36.0562 94.5027 40.2048 90.3541 40.2048 85.2365H38.2048C38.2048 89.2495 34.9516 92.5027 30.9386 92.5027V94.5027ZM40.2048 85.2365V78.5508H38.2048V85.2365H40.2048ZM42.3403 77.6806C41.312 77.6806 40.2939 77.6379 39.2877 77.5543L39.122 79.5474C40.1833 79.6356 41.2566 79.6806 42.3403 79.6806V77.6806ZM44.8379 77.5962C44.0128 77.6522 43.18 77.6806 42.3403 77.6806V79.6806C43.2252 79.6806 44.1032 79.6506 44.9733 79.5916L44.8379 77.5962ZM43.9056 78.5939V85.2365H45.9056V78.5939H43.9056ZM43.9056 85.2365C43.9056 90.3541 48.0542 94.5027 53.1718 94.5027V92.5027C49.1588 92.5027 45.9056 89.2495 45.9056 85.2365H43.9056ZM53.1718 94.5027C58.2894 94.5027 62.438 90.3541 62.438 85.2365H60.438C60.438 89.2495 57.1848 92.5027 53.1718 92.5027V94.5027ZM62.438 85.2365V73.434H60.438V85.2365H62.438Z" fill="black"/>
<circle cx="38.5822" cy="23.4864" r="1.24367" fill="black"/>
<circle cx="46.0442" cy="23.4864" r="1.24367" fill="black"/>
<path d="M32.3639 26.5952C35.6409 28.4722 44.2084 31.1 52.2627 26.5952" stroke="black" stroke-width="2" stroke-linecap="round"/>
</g>
<defs>
<filter id="filter0_d_40_2403" x="0" y="0" width="84.6807" height="99.5024" filterUnits="userSpaceOnUse" color-interpolation-filters="sRGB">
<feFlood flood-opacity="0" result="BackgroundImageFix"/>
<feColorMatrix in="SourceAlpha" type="matrix" values="0 0 0 0 0 0 0 0 0 0 0 0 0 0 0 0 0 0 127 0" result="hardAlpha"/>
<feOffset dy="1"/>
<feGaussianBlur stdDeviation="0.5"/>
<feComposite in2="hardAlpha" operator="out"/>
<feColorMatrix type="matrix" values="0 0 0 0 0 0 0 0 0 0 0 0 0 0 0 0 0 0 0.25 0"/>
<feBlend mode="normal" in2="BackgroundImageFix" result="effect1_dropShadow_40_2403"/>
<feBlend mode="normal" in="SourceGraphic" in2="effect1_dropShadow_40_2403" result="shape"/>
</filter>
</defs>
</svg>
